# xmcd CD database file
#
# Track frame offsets:
#	182
#	15957
#	30537
#	46437
#	62600
#	80402
#	92932
#	105997
#	119927
#	132465
#	148522
#
# Disc length: 2188 seconds
#
# Revision: 1
# Processed by: cddbd v1.4PL0 Copyright (c) Steve Scherf et al.
# Submitted via: CDex 1.40Beta8
#
DISCID=91088a0b
DTITLE=Sawyer Brown - Drive Me Wild
DYEAR=1999
DGENRE=Country
TTITLE0=Break My Heart Again
TTITLE1=We're Everything To Me
TTITLE2=I'm In Love With Her
TTITLE3=Drive Me Wild
TTITLE4=Moon Over Miami
TTITLE5=All Wound Up
TTITLE6=800 Pound Jesus
TTITLE7=It All Comes Down To Love
TTITLE8=Every Little Thing
TTITLE9=Playin' A Love Song
TTITLE10=Soul Searchin'
EXTD=YEAR: 1999 ID3G: 2
EXTT0=
EXTT1=
EXTT2=
EXTT3=
EXTT4=
EXTT5=
EXTT6=
EXTT7=
EXTT8=
EXTT9=
EXTT10=
PLAYORDER=
